# xmcd
#
# Track frame offsets:
#	150
#	13867
#	26977
#	42389
#	60240
#	76858
#	93280
#	107988
#	119863
#	134932
#	149750
#	166492
#	179960
#	194739
#	210764
#	224922
#	239209
#	253774
#	269331
#
# Disc length: 3760 seconds
#
# Revision: 0
# Processed by: cddbd v1.5.2PL0 Copyright (c) Steve Scherf et al.
# Submitted via: audiograbber 1.83.01
#
DISCID=420eae13
DTITLE=Various Artist - Promo Only Country Radio Sept 2017
DYEAR=2017
DGENRE=Country
TTITLE0=Toby Keith - Wacky Tobaccy
TTITLE1=Dave McElroy - Without You
TTITLE2=Brett Young - Like I Loved You
TTITLE3=Jeff Lewis and Norm Cady - Land Of Dreams
TTITLE4=Tyson Lucas - Lessons Learned
TTITLE5=Joe Nichols - Never Gets Old
TTITLE6=Candy Fernaux - Gone Fishin'
TTITLE7=David Frizzell w. Shelly West and Marty Haggard - Made In America
TTITLE8=Domingo and Esteban Hiracheta - Free To Believe
TTITLE9=Brian Milson - I'd Have To Kiss Ya
TTITLE10=The Band Steele - Tan Lines (Promo Only Clean Edit)
TTITLE11=Chris Stapleton - Broken Halos
TTITLE12=Darus Rucker - For The First Time
TTITLE13=Dan and Shay - Road Trippin'
TTITLE14=Jessica Lynn - Crazy Idea
TTITLE15=Michael Ray - Get To You (Clean)
TTITLE16=Brandon Lay - Speakers, Blachers and Preachers
TTITLE17=Dierks Bentley - What The Hell Did I Say
TTITLE18=Colt Ford f. Charles and Josh Kelley - Young Americans
EXTD=
EXTT0=
EXTT1=
EXTT2=
EXTT3=
EXTT4=
EXTT5=
EXTT6=
EXTT7=
EXTT8=
EXTT9=
EXTT10=
EXTT11=
EXTT12=
EXTT13=
EXTT14=
EXTT15=
EXTT16=
EXTT17=
EXTT18=
PLAYORDER=
